SORRY FOR THE SLOW UP SPEED ONLY 130kb/s sorry 

General
Format                           : MPEG-4
Format profile                   : Base Media / Version 2
Codec ID                         : mp42
File size                        : 107 MiB
Duration                         : 4mn 18s
Overall bit rate                 : 3 470 Kbps
Encoded date                     : UTC 2010-06-04 05:36:05
Tagged date                      : UTC 2010-06-04 05:36:05
gsst                             : 0
gstd                             : 259226
gssd                             : B4A7DA182HH1275781522400819
gshh                             :

Video
ID                               : 2
Format                           : AVC
Format/Info                      : Advanced Video Codec
Format profile                   : High@L4.0
Format settings, CABAC           : Yes
Format settings, ReFrames        : 1 frame
Codec ID                         : avc1
Codec ID/Info                    : Advanced Video Coding
Duration                         : 4mn 18s
Bit rate mode                    : Variable
Bit rate                         : 3 346 Kbps
Maximum bit rate                 : 5 609 Kbps
Width                            : 1 920 pixels
Height                           : 1 080 pixels
Display aspect ratio             : 16:9
Frame rate mode                  : Constant
Frame rate                       : 24.000 fps
Color space                      : YUV
Chroma subsampling               : 4:2:0
Bit depth                        : 8 bits
Scan type                        : Progressive
Bits/(Pixel*Frame)               : 0.067
Stream size                      : 103 MiB (96%)
Title                            : (C) 2007 Google Inc. v08.13.2007.
Encoded date                     : UTC 2010-06-04 05:36:05
Tagged date                      : UTC 2010-06-04 05:36:06

Audio
ID                               : 1
Format                           : AAC
Format/Info                      : Advanced Audio Codec
Format version                   : Version 4
Format profile                   : LC
Format settings, SBR             : No
Codec ID                         : 40
Duration                         : 4mn 18s
Bit rate mode                    : Variable
Bit rate                         : 121 Kbps
Maximum bit rate                 : 150 Kbps
Channel(s)                       : 2 channels
Channel positions                : Front: L R
Sampling rate                    : 44.1 KHz
Stream size                      : 3.75 MiB (4%)
Title                            : (C) 2007 Google Inc. v08.13.2007.
Encoded date                     : UTC 2010-06-04 05:36:05
Tagged date                      : UTC 2010-06-04 05:36:06

